<svg xmlns="http://www.w3.org/2000/svg" width="438" height="126" viewBox="0 0 438 126"><rect width="100%" height="100%" fill="#ffffff" />
<text x="8" y="16" font-family="Arial, Helvetica, sans-serif" font-size="13" font-weight="bold" fill="#000000">M4 targeted AGC window-law fits</text>
<rect x="0" y="24" width="98" height="20" fill="#ebeef2" stroke="#b4b4b4" />
<text x="8" y="40" font-family="Arial, Helvetica, sans-serif" font-size="12" font-weight="normal" fill="#000000">basis</text>
<rect x="98" y="24" width="82" height="20" fill="#ebeef2" stroke="#b4b4b4" />
<text x="106" y="40" font-family="Arial, Helvetica, sans-serif" font-size="12" font-weight="normal" fill="#000000">rho_exponent</text>
<rect x="180" y="24" width="104" height="20" fill="#ebeef2" stroke="#b4b4b4" />
<text x="188" y="40" font-family="Arial, Helvetica, sans-serif" font-size="12" font-weight="normal" fill="#000000">sigma_a_exponent</text>
<rect x="284" y="24" width="54" height="20" fill="#ebeef2" stroke="#b4b4b4" />
<text x="292" y="40" font-family="Arial, Helvetica, sans-serif" font-size="12" font-weight="normal" fill="#000000">r2</text>
<rect x="338" y="24" width="70" height="20" fill="#ebeef2" stroke="#b4b4b4" />
<text x="346" y="40" font-family="Arial, Helvetica, sans-serif" font-size="12" font-weight="normal" fill="#000000">rmse_log10</text>
<rect x="408" y="24" width="28" height="20" fill="#ebeef2" stroke="#b4b4b4" />
<text x="416" y="40" font-family="Arial, Helvetica, sans-serif" font-size="12" font-weight="normal" fill="#000000">n</text>
<rect x="0" y="44" width="98" height="20" fill="#ffffff" stroke="#d7d7d7" />
<text x="8" y="60" font-family="Arial, Helvetica, sans-serif" font-size="12" font-weight="normal" fill="#000000">hadamard_paired</text>
<rect x="98" y="44" width="82" height="20" fill="#ffffff" stroke="#d7d7d7" />
<text x="106" y="60" font-family="Arial, Helvetica, sans-serif" font-size="12" font-weight="normal" fill="#000000">-0.066542</text>
<rect x="180" y="44" width="104" height="20" fill="#ffffff" stroke="#d7d7d7" />
<text x="188" y="60" font-family="Arial, Helvetica, sans-serif" font-size="12" font-weight="normal" fill="#000000">-0.098988</text>
<rect x="284" y="44" width="54" height="20" fill="#ffffff" stroke="#d7d7d7" />
<text x="292" y="60" font-family="Arial, Helvetica, sans-serif" font-size="12" font-weight="normal" fill="#000000">0.70679</text>
<rect x="338" y="44" width="70" height="20" fill="#ffffff" stroke="#d7d7d7" />
<text x="346" y="60" font-family="Arial, Helvetica, sans-serif" font-size="12" font-weight="normal" fill="#000000">0.059692</text>
<rect x="408" y="44" width="28" height="20" fill="#ffffff" stroke="#d7d7d7" />
<text x="416" y="60" font-family="Arial, Helvetica, sans-serif" font-size="12" font-weight="normal" fill="#000000">45</text>
<rect x="0" y="64" width="98" height="20" fill="#f7f8fa" stroke="#d7d7d7" />
<text x="8" y="80" font-family="Arial, Helvetica, sans-serif" font-size="12" font-weight="normal" fill="#000000">random_binary</text>
<rect x="98" y="64" width="82" height="20" fill="#f7f8fa" stroke="#d7d7d7" />
<text x="106" y="80" font-family="Arial, Helvetica, sans-serif" font-size="12" font-weight="normal" fill="#000000">-0.29553</text>
<rect x="180" y="64" width="104" height="20" fill="#f7f8fa" stroke="#d7d7d7" />
<text x="188" y="80" font-family="Arial, Helvetica, sans-serif" font-size="12" font-weight="normal" fill="#000000">-0.64081</text>
<rect x="284" y="64" width="54" height="20" fill="#f7f8fa" stroke="#d7d7d7" />
<text x="292" y="80" font-family="Arial, Helvetica, sans-serif" font-size="12" font-weight="normal" fill="#000000">0.82086</text>
<rect x="338" y="64" width="70" height="20" fill="#f7f8fa" stroke="#d7d7d7" />
<text x="346" y="80" font-family="Arial, Helvetica, sans-serif" font-size="12" font-weight="normal" fill="#000000">0.20694</text>
<rect x="408" y="64" width="28" height="20" fill="#f7f8fa" stroke="#d7d7d7" />
<text x="416" y="80" font-family="Arial, Helvetica, sans-serif" font-size="12" font-weight="normal" fill="#000000">45</text>
<rect x="0" y="84" width="98" height="20" fill="#ffffff" stroke="#d7d7d7" />
<text x="8" y="100" font-family="Arial, Helvetica, sans-serif" font-size="12" font-weight="normal" fill="#000000">random_uniform</text>
<rect x="98" y="84" width="82" height="20" fill="#ffffff" stroke="#d7d7d7" />
<text x="106" y="100" font-family="Arial, Helvetica, sans-serif" font-size="12" font-weight="normal" fill="#000000">-0.23064</text>
<rect x="180" y="84" width="104" height="20" fill="#ffffff" stroke="#d7d7d7" />
<text x="188" y="100" font-family="Arial, Helvetica, sans-serif" font-size="12" font-weight="normal" fill="#000000">-0.48469</text>
<rect x="284" y="84" width="54" height="20" fill="#ffffff" stroke="#d7d7d7" />
<text x="292" y="100" font-family="Arial, Helvetica, sans-serif" font-size="12" font-weight="normal" fill="#000000">0.74867</text>
<rect x="338" y="84" width="70" height="20" fill="#ffffff" stroke="#d7d7d7" />
<text x="346" y="100" font-family="Arial, Helvetica, sans-serif" font-size="12" font-weight="normal" fill="#000000">0.19873</text>
<rect x="408" y="84" width="28" height="20" fill="#ffffff" stroke="#d7d7d7" />
<text x="416" y="100" font-family="Arial, Helvetica, sans-serif" font-size="12" font-weight="normal" fill="#000000">45</text>
<rect x="0" y="104" width="98" height="20" fill="#f7f8fa" stroke="#d7d7d7" />
<text x="8" y="120" font-family="Arial, Helvetica, sans-serif" font-size="12" font-weight="normal" fill="#000000">srht_paired</text>
<rect x="98" y="104" width="82" height="20" fill="#f7f8fa" stroke="#d7d7d7" />
<text x="106" y="120" font-family="Arial, Helvetica, sans-serif" font-size="12" font-weight="normal" fill="#000000">-0.17862</text>
<rect x="180" y="104" width="104" height="20" fill="#f7f8fa" stroke="#d7d7d7" />
<text x="188" y="120" font-family="Arial, Helvetica, sans-serif" font-size="12" font-weight="normal" fill="#000000">-0.33459</text>
<rect x="284" y="104" width="54" height="20" fill="#f7f8fa" stroke="#d7d7d7" />
<text x="292" y="120" font-family="Arial, Helvetica, sans-serif" font-size="12" font-weight="normal" fill="#000000">0.7866</text>
<rect x="338" y="104" width="70" height="20" fill="#f7f8fa" stroke="#d7d7d7" />
<text x="346" y="120" font-family="Arial, Helvetica, sans-serif" font-size="12" font-weight="normal" fill="#000000">0.13481</text>
<rect x="408" y="104" width="28" height="20" fill="#f7f8fa" stroke="#d7d7d7" />
<text x="416" y="120" font-family="Arial, Helvetica, sans-serif" font-size="12" font-weight="normal" fill="#000000">45</text>
</svg>
