<svg xmlns="http://www.w3.org/2000/svg" width="676" height="126" viewBox="0 0 676 126"><rect width="100%" height="100%" fill="#ffffff" />
<text x="8" y="16" font-family="Arial, Helvetica, sans-serif" font-size="13" font-weight="bold" fill="#000000">M4 boundary-aware AGC window fits</text>
<rect x="0" y="24" width="98" height="20" fill="#ebeef2" stroke="#b4b4b4" />
<text x="8" y="40" font-family="Arial, Helvetica, sans-serif" font-size="12" font-weight="normal" fill="#000000">basis</text>
<rect x="98" y="24" width="52" height="20" fill="#ebeef2" stroke="#b4b4b4" />
<text x="106" y="40" font-family="Arial, Helvetica, sans-serif" font-size="12" font-weight="normal" fill="#000000">n_exact</text>
<rect x="150" y="24" width="105" height="20" fill="#ebeef2" stroke="#b4b4b4" />
<text x="158" y="40" font-family="Arial, Helvetica, sans-serif" font-size="12" font-weight="normal" fill="#000000">n_upper_bounded</text>
<rect x="255" y="24" width="82" height="20" fill="#ebeef2" stroke="#b4b4b4" />
<text x="263" y="40" font-family="Arial, Helvetica, sans-serif" font-size="12" font-weight="normal" fill="#000000">rho_exponent</text>
<rect x="337" y="24" width="104" height="20" fill="#ebeef2" stroke="#b4b4b4" />
<text x="345" y="40" font-family="Arial, Helvetica, sans-serif" font-size="12" font-weight="normal" fill="#000000">sigma_a_exponent</text>
<rect x="441" y="24" width="104" height="20" fill="#ebeef2" stroke="#b4b4b4" />
<text x="449" y="40" font-family="Arial, Helvetica, sans-serif" font-size="12" font-weight="normal" fill="#000000">hinge_rmse_log10</text>
<rect x="545" y="24" width="129" height="20" fill="#ebeef2" stroke="#b4b4b4" />
<text x="553" y="40" font-family="Arial, Helvetica, sans-serif" font-size="12" font-weight="normal" fill="#000000">interval_satisfaction_frac</text>
<rect x="0" y="44" width="98" height="20" fill="#ffffff" stroke="#d7d7d7" />
<text x="8" y="60" font-family="Arial, Helvetica, sans-serif" font-size="12" font-weight="normal" fill="#000000">hadamard_paired</text>
<rect x="98" y="44" width="52" height="20" fill="#ffffff" stroke="#d7d7d7" />
<text x="106" y="60" font-family="Arial, Helvetica, sans-serif" font-size="12" font-weight="normal" fill="#000000">20</text>
<rect x="150" y="44" width="105" height="20" fill="#ffffff" stroke="#d7d7d7" />
<text x="158" y="60" font-family="Arial, Helvetica, sans-serif" font-size="12" font-weight="normal" fill="#000000">25</text>
<rect x="255" y="44" width="82" height="20" fill="#ffffff" stroke="#d7d7d7" />
<text x="263" y="60" font-family="Arial, Helvetica, sans-serif" font-size="12" font-weight="normal" fill="#000000">-0.076542</text>
<rect x="337" y="44" width="104" height="20" fill="#ffffff" stroke="#d7d7d7" />
<text x="345" y="60" font-family="Arial, Helvetica, sans-serif" font-size="12" font-weight="normal" fill="#000000">-0.11899</text>
<rect x="441" y="44" width="104" height="20" fill="#ffffff" stroke="#d7d7d7" />
<text x="449" y="60" font-family="Arial, Helvetica, sans-serif" font-size="12" font-weight="normal" fill="#000000">0.054044</text>
<rect x="545" y="44" width="129" height="20" fill="#ffffff" stroke="#d7d7d7" />
<text x="553" y="60" font-family="Arial, Helvetica, sans-serif" font-size="12" font-weight="normal" fill="#000000">0.4</text>
<rect x="0" y="64" width="98" height="20" fill="#f7f8fa" stroke="#d7d7d7" />
<text x="8" y="80" font-family="Arial, Helvetica, sans-serif" font-size="12" font-weight="normal" fill="#000000">random_binary</text>
<rect x="98" y="64" width="52" height="20" fill="#f7f8fa" stroke="#d7d7d7" />
<text x="106" y="80" font-family="Arial, Helvetica, sans-serif" font-size="12" font-weight="normal" fill="#000000">26</text>
<rect x="150" y="64" width="105" height="20" fill="#f7f8fa" stroke="#d7d7d7" />
<text x="158" y="80" font-family="Arial, Helvetica, sans-serif" font-size="12" font-weight="normal" fill="#000000">19</text>
<rect x="255" y="64" width="82" height="20" fill="#f7f8fa" stroke="#d7d7d7" />
<text x="263" y="80" font-family="Arial, Helvetica, sans-serif" font-size="12" font-weight="normal" fill="#000000">-0.43714</text>
<rect x="337" y="64" width="104" height="20" fill="#f7f8fa" stroke="#d7d7d7" />
<text x="345" y="80" font-family="Arial, Helvetica, sans-serif" font-size="12" font-weight="normal" fill="#000000">-1.0243</text>
<rect x="441" y="64" width="104" height="20" fill="#f7f8fa" stroke="#d7d7d7" />
<text x="449" y="80" font-family="Arial, Helvetica, sans-serif" font-size="12" font-weight="normal" fill="#000000">0.10055</text>
<rect x="545" y="64" width="129" height="20" fill="#f7f8fa" stroke="#d7d7d7" />
<text x="553" y="80" font-family="Arial, Helvetica, sans-serif" font-size="12" font-weight="normal" fill="#000000">0.8</text>
<rect x="0" y="84" width="98" height="20" fill="#ffffff" stroke="#d7d7d7" />
<text x="8" y="100" font-family="Arial, Helvetica, sans-serif" font-size="12" font-weight="normal" fill="#000000">random_uniform</text>
<rect x="98" y="84" width="52" height="20" fill="#ffffff" stroke="#d7d7d7" />
<text x="106" y="100" font-family="Arial, Helvetica, sans-serif" font-size="12" font-weight="normal" fill="#000000">20</text>
<rect x="150" y="84" width="105" height="20" fill="#ffffff" stroke="#d7d7d7" />
<text x="158" y="100" font-family="Arial, Helvetica, sans-serif" font-size="12" font-weight="normal" fill="#000000">25</text>
<rect x="255" y="84" width="82" height="20" fill="#ffffff" stroke="#d7d7d7" />
<text x="263" y="100" font-family="Arial, Helvetica, sans-serif" font-size="12" font-weight="normal" fill="#000000">-0.47896</text>
<rect x="337" y="84" width="104" height="20" fill="#ffffff" stroke="#d7d7d7" />
<text x="345" y="100" font-family="Arial, Helvetica, sans-serif" font-size="12" font-weight="normal" fill="#000000">-0.99675</text>
<rect x="441" y="84" width="104" height="20" fill="#ffffff" stroke="#d7d7d7" />
<text x="449" y="100" font-family="Arial, Helvetica, sans-serif" font-size="12" font-weight="normal" fill="#000000">0.028644</text>
<rect x="545" y="84" width="129" height="20" fill="#ffffff" stroke="#d7d7d7" />
<text x="553" y="100" font-family="Arial, Helvetica, sans-serif" font-size="12" font-weight="normal" fill="#000000">0.8</text>
<rect x="0" y="104" width="98" height="20" fill="#f7f8fa" stroke="#d7d7d7" />
<text x="8" y="120" font-family="Arial, Helvetica, sans-serif" font-size="12" font-weight="normal" fill="#000000">srht_paired</text>
<rect x="98" y="104" width="52" height="20" fill="#f7f8fa" stroke="#d7d7d7" />
<text x="106" y="120" font-family="Arial, Helvetica, sans-serif" font-size="12" font-weight="normal" fill="#000000">20</text>
<rect x="150" y="104" width="105" height="20" fill="#f7f8fa" stroke="#d7d7d7" />
<text x="158" y="120" font-family="Arial, Helvetica, sans-serif" font-size="12" font-weight="normal" fill="#000000">25</text>
<rect x="255" y="104" width="82" height="20" fill="#f7f8fa" stroke="#d7d7d7" />
<text x="263" y="120" font-family="Arial, Helvetica, sans-serif" font-size="12" font-weight="normal" fill="#000000">-0.3145</text>
<rect x="337" y="104" width="104" height="20" fill="#f7f8fa" stroke="#d7d7d7" />
<text x="345" y="120" font-family="Arial, Helvetica, sans-serif" font-size="12" font-weight="normal" fill="#000000">-0.59973</text>
<rect x="441" y="104" width="104" height="20" fill="#f7f8fa" stroke="#d7d7d7" />
<text x="449" y="120" font-family="Arial, Helvetica, sans-serif" font-size="12" font-weight="normal" fill="#000000">0.042365</text>
<rect x="545" y="104" width="129" height="20" fill="#f7f8fa" stroke="#d7d7d7" />
<text x="553" y="120" font-family="Arial, Helvetica, sans-serif" font-size="12" font-weight="normal" fill="#000000">0.64444</text>
</svg>
