<svg xmlns="http://www.w3.org/2000/svg" width="466" height="126" viewBox="0 0 466 126"><rect width="100%" height="100%" fill="#ffffff" />
<text x="8" y="16" font-family="Arial, Helvetica, sans-serif" font-size="13" font-weight="bold" fill="#000000">M4 targeted AGC best-window saturation</text>
<rect x="0" y="24" width="98" height="20" fill="#ebeef2" stroke="#b4b4b4" />
<text x="8" y="40" font-family="Arial, Helvetica, sans-serif" font-size="12" font-weight="normal" fill="#000000">basis</text>
<rect x="98" y="24" width="78" height="20" fill="#ebeef2" stroke="#b4b4b4" />
<text x="106" y="40" font-family="Arial, Helvetica, sans-serif" font-size="12" font-weight="normal" fill="#000000">lower_bound</text>
<rect x="176" y="24" width="51" height="20" fill="#ebeef2" stroke="#b4b4b4" />
<text x="184" y="40" font-family="Arial, Helvetica, sans-serif" font-size="12" font-weight="normal" fill="#000000">interior</text>
<rect x="227" y="24" width="81" height="20" fill="#ebeef2" stroke="#b4b4b4" />
<text x="235" y="40" font-family="Arial, Helvetica, sans-serif" font-size="12" font-weight="normal" fill="#000000">upper_bound</text>
<rect x="308" y="24" width="73" height="20" fill="#ebeef2" stroke="#b4b4b4" />
<text x="316" y="40" font-family="Arial, Helvetica, sans-serif" font-size="12" font-weight="normal" fill="#000000">interior_frac</text>
<rect x="381" y="24" width="83" height="20" fill="#ebeef2" stroke="#b4b4b4" />
<text x="389" y="40" font-family="Arial, Helvetica, sans-serif" font-size="12" font-weight="normal" fill="#000000">boundary_frac</text>
<rect x="0" y="44" width="98" height="20" fill="#ffffff" stroke="#d7d7d7" />
<text x="8" y="60" font-family="Arial, Helvetica, sans-serif" font-size="12" font-weight="normal" fill="#000000">hadamard_paired</text>
<rect x="98" y="44" width="78" height="20" fill="#ffffff" stroke="#d7d7d7" />
<text x="106" y="60" font-family="Arial, Helvetica, sans-serif" font-size="12" font-weight="normal" fill="#000000">25</text>
<rect x="176" y="44" width="51" height="20" fill="#ffffff" stroke="#d7d7d7" />
<text x="184" y="60" font-family="Arial, Helvetica, sans-serif" font-size="12" font-weight="normal" fill="#000000">20</text>
<rect x="227" y="44" width="81" height="20" fill="#ffffff" stroke="#d7d7d7" />
<text x="235" y="60" font-family="Arial, Helvetica, sans-serif" font-size="12" font-weight="normal" fill="#000000">0</text>
<rect x="308" y="44" width="73" height="20" fill="#ffffff" stroke="#d7d7d7" />
<text x="316" y="60" font-family="Arial, Helvetica, sans-serif" font-size="12" font-weight="normal" fill="#000000">0.44444</text>
<rect x="381" y="44" width="83" height="20" fill="#ffffff" stroke="#d7d7d7" />
<text x="389" y="60" font-family="Arial, Helvetica, sans-serif" font-size="12" font-weight="normal" fill="#000000">0.55556</text>
<rect x="0" y="64" width="98" height="20" fill="#f7f8fa" stroke="#d7d7d7" />
<text x="8" y="80" font-family="Arial, Helvetica, sans-serif" font-size="12" font-weight="normal" fill="#000000">random_binary</text>
<rect x="98" y="64" width="78" height="20" fill="#f7f8fa" stroke="#d7d7d7" />
<text x="106" y="80" font-family="Arial, Helvetica, sans-serif" font-size="12" font-weight="normal" fill="#000000">19</text>
<rect x="176" y="64" width="51" height="20" fill="#f7f8fa" stroke="#d7d7d7" />
<text x="184" y="80" font-family="Arial, Helvetica, sans-serif" font-size="12" font-weight="normal" fill="#000000">26</text>
<rect x="227" y="64" width="81" height="20" fill="#f7f8fa" stroke="#d7d7d7" />
<text x="235" y="80" font-family="Arial, Helvetica, sans-serif" font-size="12" font-weight="normal" fill="#000000">0</text>
<rect x="308" y="64" width="73" height="20" fill="#f7f8fa" stroke="#d7d7d7" />
<text x="316" y="80" font-family="Arial, Helvetica, sans-serif" font-size="12" font-weight="normal" fill="#000000">0.57778</text>
<rect x="381" y="64" width="83" height="20" fill="#f7f8fa" stroke="#d7d7d7" />
<text x="389" y="80" font-family="Arial, Helvetica, sans-serif" font-size="12" font-weight="normal" fill="#000000">0.42222</text>
<rect x="0" y="84" width="98" height="20" fill="#ffffff" stroke="#d7d7d7" />
<text x="8" y="100" font-family="Arial, Helvetica, sans-serif" font-size="12" font-weight="normal" fill="#000000">random_uniform</text>
<rect x="98" y="84" width="78" height="20" fill="#ffffff" stroke="#d7d7d7" />
<text x="106" y="100" font-family="Arial, Helvetica, sans-serif" font-size="12" font-weight="normal" fill="#000000">25</text>
<rect x="176" y="84" width="51" height="20" fill="#ffffff" stroke="#d7d7d7" />
<text x="184" y="100" font-family="Arial, Helvetica, sans-serif" font-size="12" font-weight="normal" fill="#000000">20</text>
<rect x="227" y="84" width="81" height="20" fill="#ffffff" stroke="#d7d7d7" />
<text x="235" y="100" font-family="Arial, Helvetica, sans-serif" font-size="12" font-weight="normal" fill="#000000">0</text>
<rect x="308" y="84" width="73" height="20" fill="#ffffff" stroke="#d7d7d7" />
<text x="316" y="100" font-family="Arial, Helvetica, sans-serif" font-size="12" font-weight="normal" fill="#000000">0.44444</text>
<rect x="381" y="84" width="83" height="20" fill="#ffffff" stroke="#d7d7d7" />
<text x="389" y="100" font-family="Arial, Helvetica, sans-serif" font-size="12" font-weight="normal" fill="#000000">0.55556</text>
<rect x="0" y="104" width="98" height="20" fill="#f7f8fa" stroke="#d7d7d7" />
<text x="8" y="120" font-family="Arial, Helvetica, sans-serif" font-size="12" font-weight="normal" fill="#000000">srht_paired</text>
<rect x="98" y="104" width="78" height="20" fill="#f7f8fa" stroke="#d7d7d7" />
<text x="106" y="120" font-family="Arial, Helvetica, sans-serif" font-size="12" font-weight="normal" fill="#000000">25</text>
<rect x="176" y="104" width="51" height="20" fill="#f7f8fa" stroke="#d7d7d7" />
<text x="184" y="120" font-family="Arial, Helvetica, sans-serif" font-size="12" font-weight="normal" fill="#000000">20</text>
<rect x="227" y="104" width="81" height="20" fill="#f7f8fa" stroke="#d7d7d7" />
<text x="235" y="120" font-family="Arial, Helvetica, sans-serif" font-size="12" font-weight="normal" fill="#000000">0</text>
<rect x="308" y="104" width="73" height="20" fill="#f7f8fa" stroke="#d7d7d7" />
<text x="316" y="120" font-family="Arial, Helvetica, sans-serif" font-size="12" font-weight="normal" fill="#000000">0.44444</text>
<rect x="381" y="104" width="83" height="20" fill="#f7f8fa" stroke="#d7d7d7" />
<text x="389" y="120" font-family="Arial, Helvetica, sans-serif" font-size="12" font-weight="normal" fill="#000000">0.55556</text>
</svg>
