<svg xmlns="http://www.w3.org/2000/svg" width="720" height="360" viewBox="0 0 720 360"><rect width="100%" height="100%" fill="#ffffff" />
<line x1="58" y1="318" x2="702" y2="318" stroke="#505050" stroke-width="1" />
<line x1="58" y1="318" x2="58" y2="34" stroke="#505050" stroke-width="1" />
<line x1="54" y1="318" x2="702" y2="318" stroke="#e1e1e1" stroke-width="1" />
<text x="4" y="322" font-family="Arial, Helvetica, sans-serif" font-size="12" font-weight="normal" fill="#373737">0.0837</text>
<line x1="54" y1="247" x2="702" y2="247" stroke="#e1e1e1" stroke-width="1" />
<text x="4" y="251" font-family="Arial, Helvetica, sans-serif" font-size="12" font-weight="normal" fill="#373737">0.334</text>
<line x1="54" y1="176" x2="702" y2="176" stroke="#e1e1e1" stroke-width="1" />
<text x="4" y="180" font-family="Arial, Helvetica, sans-serif" font-size="12" font-weight="normal" fill="#373737">0.584</text>
<line x1="54" y1="105" x2="702" y2="105" stroke="#e1e1e1" stroke-width="1" />
<text x="4" y="109" font-family="Arial, Helvetica, sans-serif" font-size="12" font-weight="normal" fill="#373737">0.835</text>
<line x1="54" y1="34" x2="702" y2="34" stroke="#e1e1e1" stroke-width="1" />
<text x="4" y="38" font-family="Arial, Helvetica, sans-serif" font-size="12" font-weight="normal" fill="#373737">1.09</text>
<polyline points="58,243 273,270 487,299 702,318" fill="none" stroke="#225ea8" stroke-width="2" />
<polyline points="58,34 273,131 487,217 702,272" fill="none" stroke="#d65928" stroke-width="2" />
<text x="58" y="18" font-family="Arial, Helvetica, sans-serif" font-size="13" font-weight="bold" fill="#000000">M4 random frame scaling at sigma_delta=0.05</text>
<text x="58" y="350" font-family="Arial, Helvetica, sans-serif" font-size="12" font-weight="normal" fill="#000000">num_frames index</text>
<text x="8" y="42" font-family="Arial, Helvetica, sans-serif" font-size="12" font-weight="normal" fill="#000000">relative MSE</text>
<line x1="66" y1="42" x2="84" y2="42" stroke="#225ea8" stroke-width="2" />
<text x="90" y="46" font-family="Arial, Helvetica, sans-serif" font-size="12" font-weight="normal" fill="#000000">random_binary</text>
<line x1="66" y1="58" x2="84" y2="58" stroke="#d65928" stroke-width="2" />
<text x="90" y="62" font-family="Arial, Helvetica, sans-serif" font-size="12" font-weight="normal" fill="#000000">random_uniform</text>
</svg>
