<svg xmlns="http://www.w3.org/2000/svg" width="1800" height="1198" viewBox="0 0 1800 1198">
<rect width="100%" height="100%" fill="#ffffff" />
<text x="64.0" y="42.0" font-family="Arial, Helvetica, sans-serif" font-size="26" font-weight="bold" fill="#111111">Figure 4. Residual gain errors and averaging laws</text>
<text x="64.0" y="74.0" font-family="Arial, Helvetica, sans-serif" font-size="15" font-weight="normal" fill="#333333">Residual gain error scales quadratically, while random-frame reconstructions average residual error down with frame count.</text>
<text x="64.0" y="102.0" font-family="Arial, Helvetica, sans-serif" font-size="13" font-weight="normal" fill="#666666">Status: strong quantitative support</text>
<rect x="64.0" y="128.0" width="818.0" height="430.0" fill="#ffffff" stroke="#d0d0d0" />
<text x="78.0" y="158.0" font-family="Arial, Helvetica, sans-serif" font-size="22" font-weight="bold" fill="#111111">A</text>
<text x="122.0" y="158.0" font-family="Arial, Helvetica, sans-serif" font-size="14" font-weight="normal" fill="#333333">Residual gain scaling</text>
<g transform="translate(80.00,275.39) scale(1.09167)">
<rect width="100%" height="100%" fill="#ffffff" />
<text x="8" y="16" font-family="Arial, Helvetica, sans-serif" font-size="13" font-weight="bold" fill="#000000">M4 residual gain error scaling</text>
<rect x="0" y="24" width="98" height="20" fill="#ebeef2" stroke="#b4b4b4" />
<text x="8" y="40" font-family="Arial, Helvetica, sans-serif" font-size="12" font-weight="normal" fill="#000000">basis</text>
<rect x="98" y="24" width="122" height="20" fill="#ebeef2" stroke="#b4b4b4" />
<text x="106" y="40" font-family="Arial, Helvetica, sans-serif" font-size="12" font-weight="normal" fill="#000000">sigma_delta_exponent</text>
<rect x="220" y="24" width="156" height="20" fill="#ebeef2" stroke="#b4b4b4" />
<text x="228" y="40" font-family="Arial, Helvetica, sans-serif" font-size="12" font-weight="normal" fill="#000000">sigma_delta_exponent_ci_low</text>
<rect x="376" y="24" width="163" height="20" fill="#ebeef2" stroke="#b4b4b4" />
<text x="384" y="40" font-family="Arial, Helvetica, sans-serif" font-size="12" font-weight="normal" fill="#000000">sigma_delta_exponent_ci_high</text>
<rect x="539" y="24" width="125" height="20" fill="#ebeef2" stroke="#b4b4b4" />
<text x="547" y="40" font-family="Arial, Helvetica, sans-serif" font-size="12" font-weight="normal" fill="#000000">num_frames_exponent</text>
<rect x="664" y="24" width="54" height="20" fill="#ebeef2" stroke="#b4b4b4" />
<text x="672" y="40" font-family="Arial, Helvetica, sans-serif" font-size="12" font-weight="normal" fill="#000000">r2</text>
<rect x="0" y="44" width="98" height="20" fill="#ffffff" stroke="#d7d7d7" />
<text x="8" y="60" font-family="Arial, Helvetica, sans-serif" font-size="12" font-weight="normal" fill="#000000">dct_paired</text>
<rect x="98" y="44" width="122" height="20" fill="#ffffff" stroke="#d7d7d7" />
<text x="106" y="60" font-family="Arial, Helvetica, sans-serif" font-size="12" font-weight="normal" fill="#000000">2.0017</text>
<rect x="220" y="44" width="156" height="20" fill="#ffffff" stroke="#d7d7d7" />
<text x="228" y="60" font-family="Arial, Helvetica, sans-serif" font-size="12" font-weight="normal" fill="#000000">1.9892</text>
<rect x="376" y="44" width="163" height="20" fill="#ffffff" stroke="#d7d7d7" />
<text x="384" y="60" font-family="Arial, Helvetica, sans-serif" font-size="12" font-weight="normal" fill="#000000">2.0117</text>
<rect x="539" y="44" width="125" height="20" fill="#ffffff" stroke="#d7d7d7" />
<text x="547" y="60" font-family="Arial, Helvetica, sans-serif" font-size="12" font-weight="normal" fill="#000000">0.78811</text>
<rect x="664" y="44" width="54" height="20" fill="#ffffff" stroke="#d7d7d7" />
<text x="672" y="60" font-family="Arial, Helvetica, sans-serif" font-size="12" font-weight="normal" fill="#000000">0.99996</text>
<rect x="0" y="64" width="98" height="20" fill="#f7f8fa" stroke="#d7d7d7" />
<text x="8" y="80" font-family="Arial, Helvetica, sans-serif" font-size="12" font-weight="normal" fill="#000000">fourier_fourstep</text>
<rect x="98" y="64" width="122" height="20" fill="#f7f8fa" stroke="#d7d7d7" />
<text x="106" y="80" font-family="Arial, Helvetica, sans-serif" font-size="12" font-weight="normal" fill="#000000">2.0014</text>
<rect x="220" y="64" width="156" height="20" fill="#f7f8fa" stroke="#d7d7d7" />
<text x="228" y="80" font-family="Arial, Helvetica, sans-serif" font-size="12" font-weight="normal" fill="#000000">1.9914</text>
<rect x="376" y="64" width="163" height="20" fill="#f7f8fa" stroke="#d7d7d7" />
<text x="384" y="80" font-family="Arial, Helvetica, sans-serif" font-size="12" font-weight="normal" fill="#000000">2.0126</text>
<rect x="539" y="64" width="125" height="20" fill="#f7f8fa" stroke="#d7d7d7" />
<text x="547" y="80" font-family="Arial, Helvetica, sans-serif" font-size="12" font-weight="normal" fill="#000000">0.87949</text>
<rect x="664" y="64" width="54" height="20" fill="#f7f8fa" stroke="#d7d7d7" />
<text x="672" y="80" font-family="Arial, Helvetica, sans-serif" font-size="12" font-weight="normal" fill="#000000">0.99995</text>
<rect x="0" y="84" width="98" height="20" fill="#ffffff" stroke="#d7d7d7" />
<text x="8" y="100" font-family="Arial, Helvetica, sans-serif" font-size="12" font-weight="normal" fill="#000000">hadamard_paired</text>
<rect x="98" y="84" width="122" height="20" fill="#ffffff" stroke="#d7d7d7" />
<text x="106" y="100" font-family="Arial, Helvetica, sans-serif" font-size="12" font-weight="normal" fill="#000000">2.0012</text>
<rect x="220" y="84" width="156" height="20" fill="#ffffff" stroke="#d7d7d7" />
<text x="228" y="100" font-family="Arial, Helvetica, sans-serif" font-size="12" font-weight="normal" fill="#000000">1.99</text>
<rect x="376" y="84" width="163" height="20" fill="#ffffff" stroke="#d7d7d7" />
<text x="384" y="100" font-family="Arial, Helvetica, sans-serif" font-size="12" font-weight="normal" fill="#000000">2.0124</text>
<rect x="539" y="84" width="125" height="20" fill="#ffffff" stroke="#d7d7d7" />
<text x="547" y="100" font-family="Arial, Helvetica, sans-serif" font-size="12" font-weight="normal" fill="#000000">0.78596</text>
<rect x="664" y="84" width="54" height="20" fill="#ffffff" stroke="#d7d7d7" />
<text x="672" y="100" font-family="Arial, Helvetica, sans-serif" font-size="12" font-weight="normal" fill="#000000">0.99996</text>
<rect x="0" y="104" width="98" height="20" fill="#f7f8fa" stroke="#d7d7d7" />
<text x="8" y="120" font-family="Arial, Helvetica, sans-serif" font-size="12" font-weight="normal" fill="#000000">random_binary</text>
<rect x="98" y="104" width="122" height="20" fill="#f7f8fa" stroke="#d7d7d7" />
<text x="106" y="120" font-family="Arial, Helvetica, sans-serif" font-size="12" font-weight="normal" fill="#000000">2.0018</text>
<rect x="220" y="104" width="156" height="20" fill="#f7f8fa" stroke="#d7d7d7" />
<text x="228" y="120" font-family="Arial, Helvetica, sans-serif" font-size="12" font-weight="normal" fill="#000000">1.9901</text>
<rect x="376" y="104" width="163" height="20" fill="#f7f8fa" stroke="#d7d7d7" />
<text x="384" y="120" font-family="Arial, Helvetica, sans-serif" font-size="12" font-weight="normal" fill="#000000">2.0144</text>
<rect x="539" y="104" width="125" height="20" fill="#f7f8fa" stroke="#d7d7d7" />
<text x="547" y="120" font-family="Arial, Helvetica, sans-serif" font-size="12" font-weight="normal" fill="#000000">0.74883</text>
<rect x="664" y="104" width="54" height="20" fill="#f7f8fa" stroke="#d7d7d7" />
<text x="672" y="120" font-family="Arial, Helvetica, sans-serif" font-size="12" font-weight="normal" fill="#000000">0.99992</text>
<rect x="0" y="124" width="98" height="20" fill="#ffffff" stroke="#d7d7d7" />
<text x="8" y="140" font-family="Arial, Helvetica, sans-serif" font-size="12" font-weight="normal" fill="#000000">random_uniform</text>
<rect x="98" y="124" width="122" height="20" fill="#ffffff" stroke="#d7d7d7" />
<text x="106" y="140" font-family="Arial, Helvetica, sans-serif" font-size="12" font-weight="normal" fill="#000000">2.0028</text>
<rect x="220" y="124" width="156" height="20" fill="#ffffff" stroke="#d7d7d7" />
<text x="228" y="140" font-family="Arial, Helvetica, sans-serif" font-size="12" font-weight="normal" fill="#000000">1.9964</text>
<rect x="376" y="124" width="163" height="20" fill="#ffffff" stroke="#d7d7d7" />
<text x="384" y="140" font-family="Arial, Helvetica, sans-serif" font-size="12" font-weight="normal" fill="#000000">2.0117</text>
<rect x="539" y="124" width="125" height="20" fill="#ffffff" stroke="#d7d7d7" />
<text x="547" y="140" font-family="Arial, Helvetica, sans-serif" font-size="12" font-weight="normal" fill="#000000">0.81144</text>
<rect x="664" y="124" width="54" height="20" fill="#ffffff" stroke="#d7d7d7" />
<text x="672" y="140" font-family="Arial, Helvetica, sans-serif" font-size="12" font-weight="normal" fill="#000000">0.99997</text>
<rect x="0" y="144" width="98" height="20" fill="#f7f8fa" stroke="#d7d7d7" />
<text x="8" y="160" font-family="Arial, Helvetica, sans-serif" font-size="12" font-weight="normal" fill="#000000">srht_paired</text>
<rect x="98" y="144" width="122" height="20" fill="#f7f8fa" stroke="#d7d7d7" />
<text x="106" y="160" font-family="Arial, Helvetica, sans-serif" font-size="12" font-weight="normal" fill="#000000">2.0013</text>
<rect x="220" y="144" width="156" height="20" fill="#f7f8fa" stroke="#d7d7d7" />
<text x="228" y="160" font-family="Arial, Helvetica, sans-serif" font-size="12" font-weight="normal" fill="#000000">1.9899</text>
<rect x="376" y="144" width="163" height="20" fill="#f7f8fa" stroke="#d7d7d7" />
<text x="384" y="160" font-family="Arial, Helvetica, sans-serif" font-size="12" font-weight="normal" fill="#000000">2.012</text>
<rect x="539" y="144" width="125" height="20" fill="#f7f8fa" stroke="#d7d7d7" />
<text x="547" y="160" font-family="Arial, Helvetica, sans-serif" font-size="12" font-weight="normal" fill="#000000">0.78639</text>
<rect x="664" y="144" width="54" height="20" fill="#f7f8fa" stroke="#d7d7d7" />
<text x="672" y="160" font-family="Arial, Helvetica, sans-serif" font-size="12" font-weight="normal" fill="#000000">0.99996</text>
</g>
<rect x="918.0" y="128.0" width="818.0" height="430.0" fill="#ffffff" stroke="#d0d0d0" />
<text x="932.0" y="158.0" font-family="Arial, Helvetica, sans-serif" font-size="22" font-weight="bold" fill="#111111">B</text>
<text x="976.0" y="158.0" font-family="Arial, Helvetica, sans-serif" font-size="14" font-weight="normal" fill="#333333">Random-frame curve</text>
<g transform="translate(967.00,186.00) scale(1.00000)">
<rect width="100%" height="100%" fill="#ffffff" />
<line x1="58" y1="318" x2="702" y2="318" stroke="#505050" stroke-width="1" />
<line x1="58" y1="318" x2="58" y2="34" stroke="#505050" stroke-width="1" />
<line x1="54" y1="318" x2="702" y2="318" stroke="#e1e1e1" stroke-width="1" />
<text x="4" y="322" font-family="Arial, Helvetica, sans-serif" font-size="12" font-weight="normal" fill="#373737">0.0837</text>
<line x1="54" y1="247" x2="702" y2="247" stroke="#e1e1e1" stroke-width="1" />
<text x="4" y="251" font-family="Arial, Helvetica, sans-serif" font-size="12" font-weight="normal" fill="#373737">0.334</text>
<line x1="54" y1="176" x2="702" y2="176" stroke="#e1e1e1" stroke-width="1" />
<text x="4" y="180" font-family="Arial, Helvetica, sans-serif" font-size="12" font-weight="normal" fill="#373737">0.584</text>
<line x1="54" y1="105" x2="702" y2="105" stroke="#e1e1e1" stroke-width="1" />
<text x="4" y="109" font-family="Arial, Helvetica, sans-serif" font-size="12" font-weight="normal" fill="#373737">0.835</text>
<line x1="54" y1="34" x2="702" y2="34" stroke="#e1e1e1" stroke-width="1" />
<text x="4" y="38" font-family="Arial, Helvetica, sans-serif" font-size="12" font-weight="normal" fill="#373737">1.09</text>
<polyline points="58,243 273,270 487,299 702,318" fill="none" stroke="#225ea8" stroke-width="2" />
<polyline points="58,34 273,131 487,217 702,272" fill="none" stroke="#d65928" stroke-width="2" />
<text x="58" y="18" font-family="Arial, Helvetica, sans-serif" font-size="13" font-weight="bold" fill="#000000">M4 random frame scaling at sigma_delta=0.05</text>
<text x="58" y="350" font-family="Arial, Helvetica, sans-serif" font-size="12" font-weight="normal" fill="#000000">num_frames index</text>
<text x="8" y="42" font-family="Arial, Helvetica, sans-serif" font-size="12" font-weight="normal" fill="#000000">relative MSE</text>
<line x1="66" y1="42" x2="84" y2="42" stroke="#225ea8" stroke-width="2" />
<text x="90" y="46" font-family="Arial, Helvetica, sans-serif" font-size="12" font-weight="normal" fill="#000000">random_binary</text>
<line x1="66" y1="58" x2="84" y2="58" stroke="#d65928" stroke-width="2" />
<text x="90" y="62" font-family="Arial, Helvetica, sans-serif" font-size="12" font-weight="normal" fill="#000000">random_uniform</text>
</g>
<rect x="64.0" y="594.0" width="818.0" height="430.0" fill="#ffffff" stroke="#d0d0d0" />
<text x="78.0" y="624.0" font-family="Arial, Helvetica, sans-serif" font-size="22" font-weight="bold" fill="#111111">C</text>
<text x="122.0" y="624.0" font-family="Arial, Helvetica, sans-serif" font-size="14" font-weight="normal" fill="#333333">Frame-count fit</text>
<g transform="translate(80.00,785.25) scale(1.08714)">
<rect width="100%" height="100%" fill="#ffffff" />
<text x="8" y="16" font-family="Arial, Helvetica, sans-serif" font-size="13" font-weight="bold" fill="#000000">M4 random frame scaling fits</text>
<rect x="0" y="24" width="95" height="20" fill="#ebeef2" stroke="#b4b4b4" />
<text x="8" y="40" font-family="Arial, Helvetica, sans-serif" font-size="12" font-weight="normal" fill="#000000">basis</text>
<rect x="95" y="24" width="122" height="20" fill="#ebeef2" stroke="#b4b4b4" />
<text x="103" y="40" font-family="Arial, Helvetica, sans-serif" font-size="12" font-weight="normal" fill="#000000">sigma_delta_exponent</text>
<rect x="217" y="24" width="125" height="20" fill="#ebeef2" stroke="#b4b4b4" />
<text x="225" y="40" font-family="Arial, Helvetica, sans-serif" font-size="12" font-weight="normal" fill="#000000">num_frames_exponent</text>
<rect x="342" y="24" width="159" height="20" fill="#ebeef2" stroke="#b4b4b4" />
<text x="350" y="40" font-family="Arial, Helvetica, sans-serif" font-size="12" font-weight="normal" fill="#000000">num_frames_exponent_ci_low</text>
<rect x="501" y="24" width="166" height="20" fill="#ebeef2" stroke="#b4b4b4" />
<text x="509" y="40" font-family="Arial, Helvetica, sans-serif" font-size="12" font-weight="normal" fill="#000000">num_frames_exponent_ci_high</text>
<rect x="667" y="24" width="54" height="20" fill="#ebeef2" stroke="#b4b4b4" />
<text x="675" y="40" font-family="Arial, Helvetica, sans-serif" font-size="12" font-weight="normal" fill="#000000">r2</text>
<rect x="0" y="44" width="95" height="20" fill="#ffffff" stroke="#d7d7d7" />
<text x="8" y="60" font-family="Arial, Helvetica, sans-serif" font-size="12" font-weight="normal" fill="#000000">random_binary</text>
<rect x="95" y="44" width="122" height="20" fill="#ffffff" stroke="#d7d7d7" />
<text x="103" y="60" font-family="Arial, Helvetica, sans-serif" font-size="12" font-weight="normal" fill="#000000">1.9982</text>
<rect x="217" y="44" width="125" height="20" fill="#ffffff" stroke="#d7d7d7" />
<text x="225" y="60" font-family="Arial, Helvetica, sans-serif" font-size="12" font-weight="normal" fill="#000000">-0.70985</text>
<rect x="342" y="44" width="159" height="20" fill="#ffffff" stroke="#d7d7d7" />
<text x="350" y="60" font-family="Arial, Helvetica, sans-serif" font-size="12" font-weight="normal" fill="#000000">-0.77224</text>
<rect x="501" y="44" width="166" height="20" fill="#ffffff" stroke="#d7d7d7" />
<text x="509" y="60" font-family="Arial, Helvetica, sans-serif" font-size="12" font-weight="normal" fill="#000000">-0.65886</text>
<rect x="667" y="44" width="54" height="20" fill="#ffffff" stroke="#d7d7d7" />
<text x="675" y="60" font-family="Arial, Helvetica, sans-serif" font-size="12" font-weight="normal" fill="#000000">0.99872</text>
<rect x="0" y="64" width="95" height="20" fill="#f7f8fa" stroke="#d7d7d7" />
<text x="8" y="80" font-family="Arial, Helvetica, sans-serif" font-size="12" font-weight="normal" fill="#000000">random_uniform</text>
<rect x="95" y="64" width="122" height="20" fill="#f7f8fa" stroke="#d7d7d7" />
<text x="103" y="80" font-family="Arial, Helvetica, sans-serif" font-size="12" font-weight="normal" fill="#000000">1.9993</text>
<rect x="217" y="64" width="125" height="20" fill="#f7f8fa" stroke="#d7d7d7" />
<text x="225" y="80" font-family="Arial, Helvetica, sans-serif" font-size="12" font-weight="normal" fill="#000000">-0.72216</text>
<rect x="342" y="64" width="159" height="20" fill="#f7f8fa" stroke="#d7d7d7" />
<text x="350" y="80" font-family="Arial, Helvetica, sans-serif" font-size="12" font-weight="normal" fill="#000000">-0.74877</text>
<rect x="501" y="64" width="166" height="20" fill="#f7f8fa" stroke="#d7d7d7" />
<text x="509" y="80" font-family="Arial, Helvetica, sans-serif" font-size="12" font-weight="normal" fill="#000000">-0.69518</text>
<rect x="667" y="64" width="54" height="20" fill="#f7f8fa" stroke="#d7d7d7" />
<text x="675" y="80" font-family="Arial, Helvetica, sans-serif" font-size="12" font-weight="normal" fill="#000000">0.99964</text>
</g>
<rect x="918.0" y="594.0" width="818.0" height="430.0" fill="#ffffff" stroke="#d0d0d0" />
<text x="932.0" y="624.0" font-family="Arial, Helvetica, sans-serif" font-size="22" font-weight="bold" fill="#111111">D</text>
<text x="976.0" y="624.0" font-family="Arial, Helvetica, sans-serif" font-size="14" font-weight="normal" fill="#333333">Energy concentration</text>
<g transform="translate(967.00,652.00) scale(1.00000)">
<rect width="100%" height="100%" fill="#ffffff" />
<line x1="58" y1="318" x2="702" y2="318" stroke="#505050" stroke-width="1" />
<line x1="58" y1="318" x2="58" y2="34" stroke="#505050" stroke-width="1" />
<line x1="54" y1="318" x2="702" y2="318" stroke="#e1e1e1" stroke-width="1" />
<text x="4" y="322" font-family="Arial, Helvetica, sans-serif" font-size="12" font-weight="normal" fill="#373737">0</text>
<line x1="54" y1="247" x2="702" y2="247" stroke="#e1e1e1" stroke-width="1" />
<text x="4" y="251" font-family="Arial, Helvetica, sans-serif" font-size="12" font-weight="normal" fill="#373737">0.25</text>
<line x1="54" y1="176" x2="702" y2="176" stroke="#e1e1e1" stroke-width="1" />
<text x="4" y="180" font-family="Arial, Helvetica, sans-serif" font-size="12" font-weight="normal" fill="#373737">0.5</text>
<line x1="54" y1="105" x2="702" y2="105" stroke="#e1e1e1" stroke-width="1" />
<text x="4" y="109" font-family="Arial, Helvetica, sans-serif" font-size="12" font-weight="normal" fill="#373737">0.75</text>
<line x1="54" y1="34" x2="702" y2="34" stroke="#e1e1e1" stroke-width="1" />
<text x="4" y="38" font-family="Arial, Helvetica, sans-serif" font-size="12" font-weight="normal" fill="#373737">1</text>
<polyline points="58,76 380,73 702,56" fill="none" stroke="#225ea8" stroke-width="2" />
<polyline points="58,83 380,81 702,62" fill="none" stroke="#d65928" stroke-width="2" />
<polyline points="58,98 380,87 702,67" fill="none" stroke="#2e8b57" stroke-width="2" />
<polyline points="58,238 380,239 702,239" fill="none" stroke="#835da5" stroke-width="2" />
<polyline points="58,237 380,237 702,239" fill="none" stroke="#be8620" stroke-width="2" />
<polyline points="58,244 380,239 702,238" fill="none" stroke="#2f797f" stroke-width="2" />
<text x="58" y="18" font-family="Arial, Helvetica, sans-serif" font-size="13" font-weight="bold" fill="#000000">M4 top-5% coefficient energy</text>
<text x="58" y="350" font-family="Arial, Helvetica, sans-serif" font-size="12" font-weight="normal" fill="#000000">num_pixels index</text>
<text x="8" y="42" font-family="Arial, Helvetica, sans-serif" font-size="12" font-weight="normal" fill="#000000">energy fraction</text>
<line x1="66" y1="42" x2="84" y2="42" stroke="#225ea8" stroke-width="2" />
<text x="90" y="46" font-family="Arial, Helvetica, sans-serif" font-size="12" font-weight="normal" fill="#000000">dct_paired</text>
<line x1="66" y1="58" x2="84" y2="58" stroke="#d65928" stroke-width="2" />
<text x="90" y="62" font-family="Arial, Helvetica, sans-serif" font-size="12" font-weight="normal" fill="#000000">fourier_fourstep</text>
<line x1="66" y1="74" x2="84" y2="74" stroke="#2e8b57" stroke-width="2" />
<text x="90" y="78" font-family="Arial, Helvetica, sans-serif" font-size="12" font-weight="normal" fill="#000000">hadamard_paired</text>
<line x1="66" y1="90" x2="84" y2="90" stroke="#835da5" stroke-width="2" />
<text x="90" y="94" font-family="Arial, Helvetica, sans-serif" font-size="12" font-weight="normal" fill="#000000">random_binary</text>
<line x1="66" y1="106" x2="84" y2="106" stroke="#be8620" stroke-width="2" />
<text x="90" y="110" font-family="Arial, Helvetica, sans-serif" font-size="12" font-weight="normal" fill="#000000">random_uniform</text>
<line x1="66" y1="122" x2="84" y2="122" stroke="#2f797f" stroke-width="2" />
<text x="90" y="126" font-family="Arial, Helvetica, sans-serif" font-size="12" font-weight="normal" fill="#000000">srht_paired</text>
</g>
<line x1="64" y1="1078" x2="1736" y2="1078" stroke="#d9d9d9" />
<text x="64.0" y="1096.0" font-family="Arial, Helvetica, sans-serif" font-size="13" font-weight="normal" fill="#333333">The main fitted laws supporting H2/H4: residual gain errors have near-quadratic scaling; random-frame correlation reconstructions improve with frame count;</text>
<text x="64.0" y="1115.0" font-family="Arial, Helvetica, sans-serif" font-size="13" font-weight="normal" fill="#333333">deterministic bases concentrate coefficient energy.</text>
</svg>
