<svg xmlns="http://www.w3.org/2000/svg" width="1800" height="732" viewBox="0 0 1800 732">
<rect width="100%" height="100%" fill="#ffffff" />
<text x="64.0" y="42.0" font-family="Arial, Helvetica, sans-serif" font-size="26" font-weight="bold" fill="#111111">Figure 8. SRHT spreads energy but does not give a 3 dB fast-drift win</text>
<text x="64.0" y="74.0" font-family="Arial, Helvetica, sans-serif" font-size="15" font-weight="normal" fill="#333333">Diagonal randomization spreads coefficient energy; current fast-drift tests refute the strong full-SRHT advantage gate.</text>
<text x="64.0" y="102.0" font-family="Arial, Helvetica, sans-serif" font-size="13" font-weight="normal" fill="#666666">Status: strong-claim refuted under current protocol</text>
<rect x="64.0" y="128.0" width="818.0" height="430.0" fill="#ffffff" stroke="#d0d0d0" />
<text x="78.0" y="158.0" font-family="Arial, Helvetica, sans-serif" font-size="22" font-weight="bold" fill="#111111">A</text>
<text x="122.0" y="158.0" font-family="Arial, Helvetica, sans-serif" font-size="14" font-weight="normal" fill="#333333">Energy spreading</text>
<g transform="translate(113.00,186.00) scale(1.00000)">
<rect width="100%" height="100%" fill="#ffffff" />
<line x1="58" y1="318" x2="702" y2="318" stroke="#505050" stroke-width="1" />
<line x1="58" y1="318" x2="58" y2="34" stroke="#505050" stroke-width="1" />
<line x1="54" y1="318" x2="702" y2="318" stroke="#e1e1e1" stroke-width="1" />
<text x="4" y="322" font-family="Arial, Helvetica, sans-serif" font-size="12" font-weight="normal" fill="#373737">0</text>
<line x1="54" y1="247" x2="702" y2="247" stroke="#e1e1e1" stroke-width="1" />
<text x="4" y="251" font-family="Arial, Helvetica, sans-serif" font-size="12" font-weight="normal" fill="#373737">0.25</text>
<line x1="54" y1="176" x2="702" y2="176" stroke="#e1e1e1" stroke-width="1" />
<text x="4" y="180" font-family="Arial, Helvetica, sans-serif" font-size="12" font-weight="normal" fill="#373737">0.5</text>
<line x1="54" y1="105" x2="702" y2="105" stroke="#e1e1e1" stroke-width="1" />
<text x="4" y="109" font-family="Arial, Helvetica, sans-serif" font-size="12" font-weight="normal" fill="#373737">0.75</text>
<line x1="54" y1="34" x2="702" y2="34" stroke="#e1e1e1" stroke-width="1" />
<text x="4" y="38" font-family="Arial, Helvetica, sans-serif" font-size="12" font-weight="normal" fill="#373737">1</text>
<polyline points="58,76 380,73 702,56" fill="none" stroke="#225ea8" stroke-width="2" />
<polyline points="58,83 380,81 702,62" fill="none" stroke="#d65928" stroke-width="2" />
<polyline points="58,98 380,87 702,67" fill="none" stroke="#2e8b57" stroke-width="2" />
<polyline points="58,238 380,239 702,239" fill="none" stroke="#835da5" stroke-width="2" />
<polyline points="58,237 380,237 702,239" fill="none" stroke="#be8620" stroke-width="2" />
<polyline points="58,244 380,239 702,238" fill="none" stroke="#2f797f" stroke-width="2" />
<text x="58" y="18" font-family="Arial, Helvetica, sans-serif" font-size="13" font-weight="bold" fill="#000000">M4 top-5% coefficient energy</text>
<text x="58" y="350" font-family="Arial, Helvetica, sans-serif" font-size="12" font-weight="normal" fill="#000000">num_pixels index</text>
<text x="8" y="42" font-family="Arial, Helvetica, sans-serif" font-size="12" font-weight="normal" fill="#000000">energy fraction</text>
<line x1="66" y1="42" x2="84" y2="42" stroke="#225ea8" stroke-width="2" />
<text x="90" y="46" font-family="Arial, Helvetica, sans-serif" font-size="12" font-weight="normal" fill="#000000">dct_paired</text>
<line x1="66" y1="58" x2="84" y2="58" stroke="#d65928" stroke-width="2" />
<text x="90" y="62" font-family="Arial, Helvetica, sans-serif" font-size="12" font-weight="normal" fill="#000000">fourier_fourstep</text>
<line x1="66" y1="74" x2="84" y2="74" stroke="#2e8b57" stroke-width="2" />
<text x="90" y="78" font-family="Arial, Helvetica, sans-serif" font-size="12" font-weight="normal" fill="#000000">hadamard_paired</text>
<line x1="66" y1="90" x2="84" y2="90" stroke="#835da5" stroke-width="2" />
<text x="90" y="94" font-family="Arial, Helvetica, sans-serif" font-size="12" font-weight="normal" fill="#000000">random_binary</text>
<line x1="66" y1="106" x2="84" y2="106" stroke="#be8620" stroke-width="2" />
<text x="90" y="110" font-family="Arial, Helvetica, sans-serif" font-size="12" font-weight="normal" fill="#000000">random_uniform</text>
<line x1="66" y1="122" x2="84" y2="122" stroke="#2f797f" stroke-width="2" />
<text x="90" y="126" font-family="Arial, Helvetica, sans-serif" font-size="12" font-weight="normal" fill="#000000">srht_paired</text>
</g>
<rect x="918.0" y="128.0" width="818.0" height="430.0" fill="#ffffff" stroke="#d0d0d0" />
<text x="932.0" y="158.0" font-family="Arial, Helvetica, sans-serif" font-size="22" font-weight="bold" fill="#111111">B</text>
<text x="976.0" y="158.0" font-family="Arial, Helvetica, sans-serif" font-size="14" font-weight="normal" fill="#333333">Fast-drift comparator</text>
<g transform="translate(934.00,260.42) scale(1.67591)">
<rect width="100%" height="100%" fill="#ffffff" />
<text x="8" y="16" font-family="Arial, Helvetica, sans-serif" font-size="13" font-weight="bold" fill="#000000">M3 fast-drift SRHT random comparator</text>
<rect x="0" y="24" width="32" height="20" fill="#ebeef2" stroke="#b4b4b4" />
<text x="8" y="40" font-family="Arial, Helvetica, sans-serif" font-size="12" font-weight="normal" fill="#000000">rho</text>
<rect x="32" y="24" width="54" height="20" fill="#ebeef2" stroke="#b4b4b4" />
<text x="40" y="40" font-family="Arial, Helvetica, sans-serif" font-size="12" font-weight="normal" fill="#000000">sigma_a</text>
<rect x="86" y="24" width="129" height="20" fill="#ebeef2" stroke="#b4b4b4" />
<text x="94" y="40" font-family="Arial, Helvetica, sans-serif" font-size="12" font-weight="normal" fill="#000000">srht_minus_ordered_db</text>
<rect x="215" y="24" width="152" height="20" fill="#ebeef2" stroke="#b4b4b4" />
<text x="223" y="40" font-family="Arial, Helvetica, sans-serif" font-size="12" font-weight="normal" fill="#000000">srht_minus_best_random_db</text>
<rect x="367" y="24" width="100" height="20" fill="#ebeef2" stroke="#b4b4b4" />
<text x="375" y="40" font-family="Arial, Helvetica, sans-serif" font-size="12" font-weight="normal" fill="#000000">best_srht_ablation</text>
<rect x="0" y="44" width="32" height="20" fill="#ffffff" stroke="#d7d7d7" />
<text x="8" y="60" font-family="Arial, Helvetica, sans-serif" font-size="12" font-weight="normal" fill="#000000">1</text>
<rect x="32" y="44" width="54" height="20" fill="#ffffff" stroke="#d7d7d7" />
<text x="40" y="60" font-family="Arial, Helvetica, sans-serif" font-size="12" font-weight="normal" fill="#000000">0.3</text>
<rect x="86" y="44" width="129" height="20" fill="#ffffff" stroke="#d7d7d7" />
<text x="94" y="60" font-family="Arial, Helvetica, sans-serif" font-size="12" font-weight="normal" fill="#000000">-0.009</text>
<rect x="215" y="44" width="152" height="20" fill="#ffffff" stroke="#d7d7d7" />
<text x="223" y="60" font-family="Arial, Helvetica, sans-serif" font-size="12" font-weight="normal" fill="#000000">0.19</text>
<rect x="367" y="44" width="100" height="20" fill="#ffffff" stroke="#d7d7d7" />
<text x="375" y="60" font-family="Arial, Helvetica, sans-serif" font-size="12" font-weight="normal" fill="#000000">sign_only</text>
<rect x="0" y="64" width="32" height="20" fill="#f7f8fa" stroke="#d7d7d7" />
<text x="8" y="80" font-family="Arial, Helvetica, sans-serif" font-size="12" font-weight="normal" fill="#000000">1</text>
<rect x="32" y="64" width="54" height="20" fill="#f7f8fa" stroke="#d7d7d7" />
<text x="40" y="80" font-family="Arial, Helvetica, sans-serif" font-size="12" font-weight="normal" fill="#000000">0.5</text>
<rect x="86" y="64" width="129" height="20" fill="#f7f8fa" stroke="#d7d7d7" />
<text x="94" y="80" font-family="Arial, Helvetica, sans-serif" font-size="12" font-weight="normal" fill="#000000">-0.008</text>
<rect x="215" y="64" width="152" height="20" fill="#f7f8fa" stroke="#d7d7d7" />
<text x="223" y="80" font-family="Arial, Helvetica, sans-serif" font-size="12" font-weight="normal" fill="#000000">0.082</text>
<rect x="367" y="64" width="100" height="20" fill="#f7f8fa" stroke="#d7d7d7" />
<text x="375" y="80" font-family="Arial, Helvetica, sans-serif" font-size="12" font-weight="normal" fill="#000000">sign_only</text>
<rect x="0" y="84" width="32" height="20" fill="#ffffff" stroke="#d7d7d7" />
<text x="8" y="100" font-family="Arial, Helvetica, sans-serif" font-size="12" font-weight="normal" fill="#000000">10</text>
<rect x="32" y="84" width="54" height="20" fill="#ffffff" stroke="#d7d7d7" />
<text x="40" y="100" font-family="Arial, Helvetica, sans-serif" font-size="12" font-weight="normal" fill="#000000">0.3</text>
<rect x="86" y="84" width="129" height="20" fill="#ffffff" stroke="#d7d7d7" />
<text x="94" y="100" font-family="Arial, Helvetica, sans-serif" font-size="12" font-weight="normal" fill="#000000">-0.003</text>
<rect x="215" y="84" width="152" height="20" fill="#ffffff" stroke="#d7d7d7" />
<text x="223" y="100" font-family="Arial, Helvetica, sans-serif" font-size="12" font-weight="normal" fill="#000000">0.02</text>
<rect x="367" y="84" width="100" height="20" fill="#ffffff" stroke="#d7d7d7" />
<text x="375" y="100" font-family="Arial, Helvetica, sans-serif" font-size="12" font-weight="normal" fill="#000000">sign_only</text>
<rect x="0" y="104" width="32" height="20" fill="#f7f8fa" stroke="#d7d7d7" />
<text x="8" y="120" font-family="Arial, Helvetica, sans-serif" font-size="12" font-weight="normal" fill="#000000">10</text>
<rect x="32" y="104" width="54" height="20" fill="#f7f8fa" stroke="#d7d7d7" />
<text x="40" y="120" font-family="Arial, Helvetica, sans-serif" font-size="12" font-weight="normal" fill="#000000">0.5</text>
<rect x="86" y="104" width="129" height="20" fill="#f7f8fa" stroke="#d7d7d7" />
<text x="94" y="120" font-family="Arial, Helvetica, sans-serif" font-size="12" font-weight="normal" fill="#000000">-0.004</text>
<rect x="215" y="104" width="152" height="20" fill="#f7f8fa" stroke="#d7d7d7" />
<text x="223" y="120" font-family="Arial, Helvetica, sans-serif" font-size="12" font-weight="normal" fill="#000000">0.016</text>
<rect x="367" y="104" width="100" height="20" fill="#f7f8fa" stroke="#d7d7d7" />
<text x="375" y="120" font-family="Arial, Helvetica, sans-serif" font-size="12" font-weight="normal" fill="#000000">sign_only</text>
</g>
<line x1="64" y1="612" x2="1736" y2="612" stroke="#d9d9d9" />
<text x="64.0" y="630.0" font-family="Arial, Helvetica, sans-serif" font-size="13" font-weight="normal" fill="#333333">Energy concentration and fast-drift random-comparator evidence. Full SRHT is slightly above the best random basis in sampled fast cells, but it does not beat ordered</text>
<text x="64.0" y="649.0" font-family="Arial, Helvetica, sans-serif" font-size="13" font-weight="normal" fill="#333333">Hadamard by the requested 3 dB margin.</text>
</svg>
