<svg xmlns="http://www.w3.org/2000/svg" width="469" height="126" viewBox="0 0 469 126"><rect width="100%" height="100%" fill="#ffffff" />
<text x="8" y="16" font-family="Arial, Helvetica, sans-serif" font-size="13" font-weight="bold" fill="#000000">M3 fast-drift SRHT random comparator</text>
<rect x="0" y="24" width="32" height="20" fill="#ebeef2" stroke="#b4b4b4" />
<text x="8" y="40" font-family="Arial, Helvetica, sans-serif" font-size="12" font-weight="normal" fill="#000000">rho</text>
<rect x="32" y="24" width="54" height="20" fill="#ebeef2" stroke="#b4b4b4" />
<text x="40" y="40" font-family="Arial, Helvetica, sans-serif" font-size="12" font-weight="normal" fill="#000000">sigma_a</text>
<rect x="86" y="24" width="129" height="20" fill="#ebeef2" stroke="#b4b4b4" />
<text x="94" y="40" font-family="Arial, Helvetica, sans-serif" font-size="12" font-weight="normal" fill="#000000">srht_minus_ordered_db</text>
<rect x="215" y="24" width="152" height="20" fill="#ebeef2" stroke="#b4b4b4" />
<text x="223" y="40" font-family="Arial, Helvetica, sans-serif" font-size="12" font-weight="normal" fill="#000000">srht_minus_best_random_db</text>
<rect x="367" y="24" width="100" height="20" fill="#ebeef2" stroke="#b4b4b4" />
<text x="375" y="40" font-family="Arial, Helvetica, sans-serif" font-size="12" font-weight="normal" fill="#000000">best_srht_ablation</text>
<rect x="0" y="44" width="32" height="20" fill="#ffffff" stroke="#d7d7d7" />
<text x="8" y="60" font-family="Arial, Helvetica, sans-serif" font-size="12" font-weight="normal" fill="#000000">1</text>
<rect x="32" y="44" width="54" height="20" fill="#ffffff" stroke="#d7d7d7" />
<text x="40" y="60" font-family="Arial, Helvetica, sans-serif" font-size="12" font-weight="normal" fill="#000000">0.3</text>
<rect x="86" y="44" width="129" height="20" fill="#ffffff" stroke="#d7d7d7" />
<text x="94" y="60" font-family="Arial, Helvetica, sans-serif" font-size="12" font-weight="normal" fill="#000000">-0.009</text>
<rect x="215" y="44" width="152" height="20" fill="#ffffff" stroke="#d7d7d7" />
<text x="223" y="60" font-family="Arial, Helvetica, sans-serif" font-size="12" font-weight="normal" fill="#000000">0.19</text>
<rect x="367" y="44" width="100" height="20" fill="#ffffff" stroke="#d7d7d7" />
<text x="375" y="60" font-family="Arial, Helvetica, sans-serif" font-size="12" font-weight="normal" fill="#000000">sign_only</text>
<rect x="0" y="64" width="32" height="20" fill="#f7f8fa" stroke="#d7d7d7" />
<text x="8" y="80" font-family="Arial, Helvetica, sans-serif" font-size="12" font-weight="normal" fill="#000000">1</text>
<rect x="32" y="64" width="54" height="20" fill="#f7f8fa" stroke="#d7d7d7" />
<text x="40" y="80" font-family="Arial, Helvetica, sans-serif" font-size="12" font-weight="normal" fill="#000000">0.5</text>
<rect x="86" y="64" width="129" height="20" fill="#f7f8fa" stroke="#d7d7d7" />
<text x="94" y="80" font-family="Arial, Helvetica, sans-serif" font-size="12" font-weight="normal" fill="#000000">-0.008</text>
<rect x="215" y="64" width="152" height="20" fill="#f7f8fa" stroke="#d7d7d7" />
<text x="223" y="80" font-family="Arial, Helvetica, sans-serif" font-size="12" font-weight="normal" fill="#000000">0.082</text>
<rect x="367" y="64" width="100" height="20" fill="#f7f8fa" stroke="#d7d7d7" />
<text x="375" y="80" font-family="Arial, Helvetica, sans-serif" font-size="12" font-weight="normal" fill="#000000">sign_only</text>
<rect x="0" y="84" width="32" height="20" fill="#ffffff" stroke="#d7d7d7" />
<text x="8" y="100" font-family="Arial, Helvetica, sans-serif" font-size="12" font-weight="normal" fill="#000000">10</text>
<rect x="32" y="84" width="54" height="20" fill="#ffffff" stroke="#d7d7d7" />
<text x="40" y="100" font-family="Arial, Helvetica, sans-serif" font-size="12" font-weight="normal" fill="#000000">0.3</text>
<rect x="86" y="84" width="129" height="20" fill="#ffffff" stroke="#d7d7d7" />
<text x="94" y="100" font-family="Arial, Helvetica, sans-serif" font-size="12" font-weight="normal" fill="#000000">-0.003</text>
<rect x="215" y="84" width="152" height="20" fill="#ffffff" stroke="#d7d7d7" />
<text x="223" y="100" font-family="Arial, Helvetica, sans-serif" font-size="12" font-weight="normal" fill="#000000">0.02</text>
<rect x="367" y="84" width="100" height="20" fill="#ffffff" stroke="#d7d7d7" />
<text x="375" y="100" font-family="Arial, Helvetica, sans-serif" font-size="12" font-weight="normal" fill="#000000">sign_only</text>
<rect x="0" y="104" width="32" height="20" fill="#f7f8fa" stroke="#d7d7d7" />
<text x="8" y="120" font-family="Arial, Helvetica, sans-serif" font-size="12" font-weight="normal" fill="#000000">10</text>
<rect x="32" y="104" width="54" height="20" fill="#f7f8fa" stroke="#d7d7d7" />
<text x="40" y="120" font-family="Arial, Helvetica, sans-serif" font-size="12" font-weight="normal" fill="#000000">0.5</text>
<rect x="86" y="104" width="129" height="20" fill="#f7f8fa" stroke="#d7d7d7" />
<text x="94" y="120" font-family="Arial, Helvetica, sans-serif" font-size="12" font-weight="normal" fill="#000000">-0.004</text>
<rect x="215" y="104" width="152" height="20" fill="#f7f8fa" stroke="#d7d7d7" />
<text x="223" y="120" font-family="Arial, Helvetica, sans-serif" font-size="12" font-weight="normal" fill="#000000">0.016</text>
<rect x="367" y="104" width="100" height="20" fill="#f7f8fa" stroke="#d7d7d7" />
<text x="375" y="120" font-family="Arial, Helvetica, sans-serif" font-size="12" font-weight="normal" fill="#000000">sign_only</text>
</svg>
